Coordinates
version=1
nRows=29
nColumns=24
inDegrees=yes

Units are S.I. units (second, meters, Newtons, ...)
Angles are in degrees.

endheader
time	pelvis_tilt	pelvis_list	pelvis_rotation	pelvis_tx	pelvis_ty	pelvis_tz	hip_flexion_r	hip_adduction_r	hip_rotation_r	knee_angle_r	ankle_angle_r	subtalar_angle_r	mtp_angle_r	hip_flexion_l	hip_adduction_l	hip_rotation_l	knee_angle_l	ankle_angle_l	subtalar_angle_l	mtp_angle_l	lumbar_extension	lumbar_bending	lumbar_rotation
      1.29383333	      3.97799781	     -2.74737201	     -7.11363269	      0.11025974	      0.96821314	      0.30558905	    -25.51001977	      3.98328589	      3.44500241	     -9.50819564	      9.05306093	     -4.74987708	      3.57925575	     21.12461299	     -2.42364625	     -7.11537442	     -0.89584266	      3.37061872	     -4.14343112	      1.70329712	     -6.13360655	      5.01457053	     12.06625606
      1.29800000	      3.92925627	     -2.60309676	     -7.19788745	      0.11663419	      0.96772999	      0.30542734	    -25.56545651	      3.74702301	      3.36113159	     -9.93684851	      8.71984710	     -4.81592953	      3.64813743	     21.18971380	     -2.27048696	     -7.23249256	     -1.39787923	      3.04305631	     -4.40029817	      1.72862282	     -5.98963375	      4.82512729	     12.07242814
      1.30216667	      3.79631654	     -2.46587282	     -7.23223989	      0.12303404	      0.96716723	      0.30517082	    -25.51933794	      3.54823730	      3.24225266	    -10.37531870	      8.32574872	     -4.74287035	      3.91902690	     21.35214437	     -2.10685143	     -7.13856006	     -1.92226338	      2.54305065	     -4.99335461	      1.84324222	     -5.74595421	      4.68649930	     12.11761558
      1.30633333	      3.73819926	     -2.28255908	     -7.28996859	      0.12948444	      0.96675025	      0.30493730	    -25.50797270	      3.27489353	      3.04460555	    -10.87965747	      7.87622374	     -4.73796388	      8.46431515	     21.44021343	     -1.90142839	     -7.17543778	     -2.48268501	      2.04210224	     -5.48160479	      3.80903512	     -5.58792967	      4.47106624	     12.11393508
      1.31050000	      3.66303831	     -2.10453696	     -7.33226961	      0.13597504	      0.96637089	      0.30471601	    -25.49463446	      3.03278402	      2.96737846	    -11.35675537	      7.39383077	     -4.88909987	      8.48503806	     21.57642516	     -1.70823007	     -7.24162127	     -3.12873848	      1.59012659	     -5.79957703	      3.79925112	     -5.40538067	      4.25640700	     12.12119096
      1.31466667	      3.53797931	     -1.94781122	     -7.33728646	      0.14248180	      0.96597361	      0.30443913	    -25.41548693	      2.83707421	      2.88480439	    -11.85179085	      6.89060545	     -5.00835285	      8.58495443	     21.77200611	     -1.52244733	     -7.15081729	     -3.79553739	      1.02921546	     -6.39806979	      3.81031210	     -5.13878609	      4.08683014	     12.11922769
      1.31883333	      3.45147561	     -1.76610550	     -7.35727033	      0.14900077	      0.96568030	      0.30415924	    -25.32948433	      2.60150118	      2.77303802	    -12.42906982	      6.36006602	     -5.14804851	      8.78363458	     21.91782066	     -1.30972273	     -7.07848659	     -4.45936388	      0.47456469	     -6.97766689	      3.85298028	     -4.93792686	      3.88195561	     12.08763591
      1.32300000	      3.39861013	     -1.54485307	     -7.36722638	      0.15560171	      0.96548098	      0.30388965	    -25.27796659	      2.32965115	      2.66207667	    -12.99257533	      5.76992521	     -5.32721392	      8.86903284	     22.05631422	     -1.06430062	     -7.14135090	     -5.19458575	     -0.02921483	     -7.27288123	      3.86968399	     -4.75900851	      3.60467315	     12.07781006
      1.32716667	      3.38827178	     -1.32515151	     -7.35030909	      0.16222124	      0.96539011	      0.30353265	    -25.26573591	      2.05687220	      2.51795062	    -13.54049068	      5.03501762	     -5.41548185	     10.98817437	     22.09639758	     -0.77532591	     -6.95111294	     -5.82080632	     -0.71214194	     -8.12319659	      4.42398517	     -4.61783610	      3.34370783	     12.00055971
      1.33133333	      3.21841341	     -1.14075629	     -7.30812443	      0.16882270	      0.96513610	      0.30318171	    -25.02947710	      1.86592520	      2.41712597	    -14.21113245	      4.42380866	     -5.67434955	     11.13324825	     22.42029181	     -0.57137246	     -6.95353403	     -6.69309803	     -1.19121995	     -8.37069650	      4.44806060	     -4.29162723	      3.14469602	     11.98650664
      1.33550000	      3.16397541	     -0.90816538	     -7.28861044	      0.17546926	      0.96508962	      0.30284128	    -24.89409692	      1.59601544	      2.30060245	    -14.89749408	      3.69093801	     -5.91115052	     11.23490705	     22.57545518	     -0.30442695	     -6.95959030	     -7.48511044	     -1.65077978	     -8.65417784	      4.46185994	     -4.10957483	      2.86781102	     11.95241131
      1.33966667	      3.08251977	     -0.69135458	     -7.22932465	      0.18211626	      0.96505428	      0.30239375	    -24.70314878	      1.35154089	      2.13024859	    -15.61211146	      2.87322259	     -6.12348664	     16.14209805	     22.75178131	     -0.02370996	     -6.80093871	     -8.25883767	     -2.22324025	     -9.26871271	      5.27029508	     -3.87962934	      2.62713787	     11.87293169
      1.34383333	      3.05339554	     -0.45675549	     -7.17808439	      0.18880358	      0.96514430	      0.30200270	    -24.55339852	      1.09119879	      2.01198058	    -16.34989557	      2.02484065	     -6.37788893	     16.15512030	     22.88815590	      0.25655857	     -6.79590462	     -9.08736751	     -2.61676110	     -9.48972105	      5.25921981	     -3.70368547	      2.33317583	     11.83087186
      1.34800000	      2.99670000	     -0.22463898	     -7.10301049	      0.19549512	      0.96524422	      0.30153522	    -24.35274044	      0.84496706	      1.90699720	    -17.11273526	      1.10303775	     -6.62090222	     16.20004205	     23.05440077	      0.54948125	     -6.70580797	     -9.92177184	     -3.00773190	     -9.79704834	      5.24780964	     -3.51538547	      2.07235795	     11.76403610
      1.35216667	      2.92730066	     -0.02670471	     -7.00075928	      0.20214881	      0.96538076	      0.30100980	    -24.10799125	      0.64654982	      1.80726998	    -17.92226130	      0.14930817	     -6.85618657	     16.33848704	     23.23377838	      0.82442776	     -6.52843624	    -10.76071418	     -3.41881993	    -10.23679847	      5.22819265	     -3.30465745	      1.85764467	     11.64645657
      1.35633333	      2.92337343	      0.23915804	     -6.92597782	      0.20886437	      0.96563944	      0.30051425	    -23.88844315	      0.35263439	      1.66999933	    -18.79878465	     -0.82726018	     -7.08691452	     16.42951709	     23.31840487	      1.16128159	     -6.45708965	    -11.56200322	     -3.69057330	    -10.45612168	      5.21437197	     -3.15971426	      1.53417599	     11.58784472
      1.36050000	      2.93622551	      0.48389990	     -6.79676000	      0.21553996	      0.96594563	      0.29986676	    -23.65650272	      0.08033744	      1.43478680	    -19.70510018	     -1.93907488	     -7.23701440	     20.56126860	     23.36827217	      1.52572551	     -6.19581615	    -12.32670059	     -3.99052260	    -10.93453537	      4.72954621	     -3.04844253	      1.25830111	     11.46188678
      1.36466667	      2.91876674	      0.73140246	     -6.72785512	      0.22223060	      0.96628678	      0.29934933	    -23.35807611	     -0.19458243	      1.36247806	    -20.66810940	     -3.01696450	     -7.47695761	     20.58137516	     23.45944446	      1.83665502	     -6.16771175	    -13.13246411	     -4.19341684	    -11.04999916	      4.72377949	     -2.88706975	      0.96715802	     11.40375427
      1.36883333	      2.90133733	      0.93584022	     -6.61410403	      0.22885134	      0.96665990	      0.29872475	    -23.02585584	     -0.41406980	      1.25844537	    -21.67700918	     -4.19685017	     -7.68097335	     20.66058356	     23.53910401	      2.13666569	     -6.00193653	    -13.91937743	     -4.36182700	    -11.26940252	      4.70435240	     -2.74443948	      0.75016650	     11.29576742
      1.37300000	      2.93120963	      1.19450232	     -6.51283373	      0.23550761	      0.96711140	      0.29810957	    -22.71165652	     -0.70489603	      1.13161683	    -22.72977566	     -5.36115290	     -7.87142707	     20.71564069	     23.54921093	      2.49130613	     -5.90580992	    -14.67454430	     -4.44616848	    -11.41651720	      4.68772656	     -2.64766070	      0.43807623	     11.22968059
      1.37716667	      2.95662575	      1.41384495	     -6.40179153	      0.24209142	      0.96760292	      0.29743777	    -22.35170233	     -0.95766895	      1.00890698	    -23.83508264	     -6.63339087	     -8.01471970	     20.81182006	     23.53359497	      2.82087354	     -5.73846643	    -15.37128434	     -4.53493777	    -11.58575064	      4.65565844	     -2.55206313	      0.20509590	     11.12886045
      1.38133333	      2.98678347	      1.63313134	     -6.27727506	      0.24864135	      0.96811047	      0.29673130	    -21.96803953	     -1.20836250	      0.88470396	    -24.97694035	     -7.91068445	     -8.13575700	     20.99969297	     23.51156862	      3.15869074	     -5.57744468	    -16.06964355	     -4.59589381	    -11.80838292	      4.58678374	     -2.47596459	     -0.03748123	     10.99633606
      1.38550000	      3.03414314	      1.87830207	     -6.18045753	      0.25517497	      0.96868410	      0.29604547	    -21.55505709	     -1.50391476	      0.76509812	    -26.18431099	     -9.19815712	     -8.28051918	     21.11414680	     23.42458761	      3.51722687	     -5.45102852	    -16.67876297	     -4.57784558	    -11.89093313	      4.53870301	     -2.40636119	     -0.31290044	     10.92467081
      1.38966667	      3.09989590	      2.11798894	     -6.07902465	      0.26164814	      0.96927342	      0.29534996	    -21.13361627	     -1.79369057	      0.66127383	    -27.42573577	    -10.47289677	     -8.42148025	     21.18727887	     23.32192917	      3.87061994	     -5.36360493	    -17.30063137	     -4.50314657	    -11.99054071	      4.50245319	     -2.37674052	     -0.59901959	     10.85273856
      1.39383333	      3.14773074	      2.33763697	     -5.97763924	      0.26805635	      0.96987826	      0.29463521	    -20.65511216	     -2.06466380	      0.56797051	    -28.71101664	    -11.78750697	     -8.54364048	     21.25580511	     23.20330777	      4.20878539	     -5.24582059	    -17.85341341	     -4.42973115	    -12.07590459	      4.46110160	     -2.33307762	     -0.83867307	     10.76873544
      1.39800000	      3.20339124	      2.55394303	     -5.87803562	      0.27440968	      0.97050317	      0.29390412	    -20.15194761	     -2.33832714	      0.47540071	    -30.03280667	    -13.09724499	     -8.66350535	     21.31426882	     23.05260545	      4.54741636	     -5.13453553	    -18.36106572	     -4.32355559	    -12.15632618	      4.41631891	     -2.29895613	     -1.07337600	     10.67636719
      1.40216667	      3.24962392	      2.75196365	     -5.77665749	      0.28068854	      0.97114554	      0.29315320	    -19.60807748	     -2.59462806	      0.39349421	    -31.38252714	    -14.41869981	     -8.76869481	     21.37630876	     22.87781663	      4.87394973	     -4.99538607	    -18.79888141	     -4.22214081	    -12.22381769	      4.35054615	     -2.25538469	     -1.26291507	     10.56802936
      1.40633333	      3.31108351	      2.95528557	     -5.68428323	      0.28690667	      0.97180405	      0.29241990	    -19.05151285	     -2.86177687	      0.32199500	    -32.76236476	    -15.67486735	     -8.88932036	     21.41428828	     22.67388829	      5.20144905	     -4.90067582	    -19.21411062	     -4.06786113	    -12.28903656	      4.27802264	     -2.24142212	     -1.48004827	     10.46348949
      1.41050000	      3.38366226	      3.16627840	     -5.60622573	      0.29306058	      0.97247569	      0.29170987	    -18.47875358	     -3.14113443	      0.27700686	    -34.16791985	    -16.84888332	     -9.01758794	     21.41382811	     22.44399992	      5.53121977	     -4.84626153	    -19.60358002	     -3.85224307	    -12.33455787	      4.22964377	     -2.25249322	     -1.72369113	     10.37438200
